<?xml version="1.0" encoding="UTF-8" standalone="no"?>
<!-- Created with Inkscape (http://www.inkscape.org/) -->

<svg
   xmlns:dc="http://purl.org/dc/elements/1.1/"
   xmlns:cc="http://creativecommons.org/ns#"
   xmlns:rdf="http://www.w3.org/1999/02/22-rdf-syntax-ns#"
   xmlns:svg="http://www.w3.org/2000/svg"
   xmlns="http://www.w3.org/2000/svg"
   xmlns:xlink="http://www.w3.org/1999/xlink"
   xmlns:sodipodi="http://sodipodi.sourceforge.net/DTD/sodipodi-0.dtd"
   xmlns:inkscape="http://www.inkscape.org/namespaces/inkscape"
   width="100"
   height="100"
   id="svg2633"
   sodipodi:version="0.32"
   inkscape:version="0.48.4 r9939"
   sodipodi:modified="true"
   version="1.0"
   sodipodi:docname="cvON.svg">
  <defs
     id="defs2635">
    <linearGradient
       inkscape:collect="always"
       xlink:href="#linearGradient3257"
       id="linearGradient3762"
       gradientUnits="userSpaceOnUse"
       x1="127.19796"
       y1="18.49473"
       x2="127.19796"
       y2="47.546875" />
    <linearGradient
       inkscape:collect="always"
       xlink:href="#linearGradient3257"
       id="linearGradient3764"
       gradientUnits="userSpaceOnUse"
       x1="127.19796"
       y1="18.49473"
       x2="127.19796"
       y2="47.546875" />
    <linearGradient
       inkscape:collect="always"
       xlink:href="#linearGradient3257"
       id="linearGradient3766"
       gradientUnits="userSpaceOnUse"
       x1="127.19796"
       y1="18.49473"
       x2="127.19796"
       y2="47.546875" />
    <linearGradient
       id="linearGradient3257"
       inkscape:collect="always">
      <stop
         id="stop3259"
         offset="0"
         style="stop-color:#ffffff;stop-opacity:1" />
      <stop
         id="stop3261"
         offset="1"
         style="stop-color:#ffffff;stop-opacity:0" />
    </linearGradient>
    <linearGradient
       inkscape:collect="always"
       xlink:href="#linearGradient3257"
       id="linearGradient3768"
       gradientUnits="userSpaceOnUse"
       x1="127.19796"
       y1="18.49473"
       x2="127.19796"
       y2="47.546875" />
    <linearGradient
       inkscape:collect="always"
       xlink:href="#linearGradient3257"
       id="linearGradient2714"
       gradientUnits="userSpaceOnUse"
       x1="127.19796"
       y1="18.49473"
       x2="127.19796"
       y2="47.546875" />
    <linearGradient
       inkscape:collect="always"
       xlink:href="#linearGradient3257"
       id="linearGradient2716"
       gradientUnits="userSpaceOnUse"
       x1="127.19796"
       y1="18.49473"
       x2="127.19796"
       y2="47.546875" />
    <linearGradient
       inkscape:collect="always"
       xlink:href="#linearGradient3257"
       id="linearGradient2718"
       gradientUnits="userSpaceOnUse"
       x1="127.19796"
       y1="18.49473"
       x2="127.19796"
       y2="47.546875" />
    <linearGradient
       inkscape:collect="always"
       xlink:href="#linearGradient3257"
       id="linearGradient2720"
       gradientUnits="userSpaceOnUse"
       x1="127.19796"
       y1="18.49473"
       x2="127.19796"
       y2="47.546875" />
    <filter
       inkscape:collect="always"
       id="filter3776"
       x="-0.12"
       width="1.24"
       y="-0.12"
       height="1.24">
      <feGaussianBlur
         inkscape:collect="always"
         stdDeviation="3.510146"
         id="feGaussianBlur3778" />
    </filter>
  </defs>
  <sodipodi:namedview
     id="base"
     pagecolor="#ffffff"
     bordercolor="#666666"
     borderopacity="1.0"
     gridtolerance="10000"
     guidetolerance="10"
     objecttolerance="10"
     inkscape:pageopacity="0.0"
     inkscape:pageshadow="2"
     inkscape:zoom="1"
     inkscape:cx="-150.72709"
     inkscape:cy="166.93421"
     inkscape:document-units="px"
     inkscape:current-layer="g2680"
     width="310px"
     height="60px"
     inkscape:window-width="1366"
     inkscape:window-height="706"
     inkscape:window-x="-8"
     inkscape:window-y="-8"
     showgrid="true"
     inkscape:window-maximized="1">
    <inkscape:grid
       empspacing="5"
       visible="true"
       enabled="true"
       snapvisiblegridlinesonly="true"
       type="xygrid"
       id="grid3026" />
  </sodipodi:namedview>
  <metadata
     id="metadata2638">
    <rdf:RDF>
      <cc:Work
         rdf:about="">
        <dc:format>image/svg+xml</dc:format>
        <dc:type
           rdf:resource="http://purl.org/dc/dcmitype/StillImage" />
        <dc:title></dc:title>
        <dc:date>08 12 2006</dc:date>
        <dc:creator>
          <cc:Agent>
            <dc:title>molumen</dc:title>
          </cc:Agent>
        </dc:creator>
        <dc:description>multicolor power buttons</dc:description>
        <cc:license
           rdf:resource="http://web.resource.org/cc/PublicDomain" />
        <dc:subject>
          <rdf:Bag>
            <rdf:li>icon</rdf:li>
            <rdf:li>button</rdf:li>
            <rdf:li>design</rdf:li>
            <rdf:li>UI</rdf:li>
            <rdf:li>interface</rdf:li>
            <rdf:li>power</rdf:li>
            <rdf:li>switch</rdf:li>
            <rdf:li>on</rdf:li>
            <rdf:li>off</rdf:li>
            <rdf:li>red</rdf:li>
            <rdf:li>green</rdf:li>
            <rdf:li>blue</rdf:li>
            <rdf:li>orange</rdf:li>
            <rdf:li>glossy</rdf:li>
            <rdf:li>toggle</rdf:li>
            <rdf:li />
          </rdf:Bag>
        </dc:subject>
      </cc:Work>
      <cc:License
         rdf:about="http://web.resource.org/cc/PublicDomain">
        <cc:permits
           rdf:resource="http://web.resource.org/cc/Reproduction" />
        <cc:permits
           rdf:resource="http://web.resource.org/cc/Distribution" />
        <cc:permits
           rdf:resource="http://web.resource.org/cc/DerivativeWorks" />
      </cc:License>
    </rdf:RDF>
  </metadata>
  <g
     inkscape:label="Layer 1"
     inkscape:groupmode="layer"
     id="layer1"
     transform="translate(-19.314886,19.0804)">
    <g
       id="g2680"
       transform="translate(20.438989,7.9389852)">
      <path
         transform="matrix(0.6284927,0,0,0.6284928,-362.28686,-546.03555)"
         d="m 690.10152,908.54846 c 0,19.386 -15.71546,35.10146 -35.10146,35.10146 -19.386,0 -35.10146,-15.71546 -35.10146,-35.10146 0,-19.386 15.71546,-35.10146 35.10146,-35.10146 19.386,0 35.10146,15.71546 35.10146,35.10146 z"
         sodipodi:ry="35.10146"
         sodipodi:rx="35.10146"
         sodipodi:cy="908.54846"
         sodipodi:cx="655.00006"
         id="path3676"
         style="fill:#008000;fill-opacity:1;fill-rule:evenodd;stroke:none;filter:url(#filter3776)"
         sodipodi:type="arc" />
      <path
         sodipodi:type="arc"
         style="opacity:0.75;fill:url(#linearGradient2714);fill-opacity:1;fill-rule:evenodd;stroke:none"
         id="path3678"
         sodipodi:cx="127.19796"
         sodipodi:cy="34.778526"
         sodipodi:rx="22.428625"
         sodipodi:ry="16.283796"
         d="m 149.62659,34.778526 c 0,8.993293 -10.04164,16.283797 -22.42863,16.283797 -12.38699,0 -22.42863,-7.290504 -22.42863,-16.283797 0,-8.993292 10.04164,-16.283796 22.42863,-16.283796 12.38699,0 22.42863,7.290504 22.42863,16.283796 z"
         transform="matrix(0.7015559,0,0,0.7362531,-39.860622,-8.6343)" />
      <g
         style="fill:#eeeeec;stroke:none"
         transform="matrix(0.5824089,0,0,0.5824089,-92.296257,-414.75718)"
         id="g3704" />
      <g
         style="fill:#a40000;stroke:none"
         transform="matrix(0.5824089,0,0,0.6244504,-309.29626,-464.9672)"
         id="g3750">
        <path
           transform="matrix(0.935483,0,0,0.935483,3.100892,-64.47165)"
           d="m 649.09375,892 c -7.61853,2.48999 -13.15624,9.60548 -13.15625,18.0625 2e-5,10.525 8.5375,19.06249 19.0625,19.0625 10.525,-3e-5 19.06249,-8.5375 19.0625,-19.0625 -2e-5,-8.45792 -5.56444,-15.57409 -13.1875,-18.0625 l 0,6.8125 c 4.06728,2.13572 6.90625,6.34059 6.90625,11.25 10e-6,7.04627 -5.73497,12.78125 -12.78125,12.78125 -7.04628,10e-6 -12.78125,-5.73497 -12.78125,-12.78125 -2e-5,-4.90659 2.80869,-9.1136 6.875,-11.25 l 0,-6.8125 z"
           inkscape:href="#path22091"
           id="path3752"
           style="fill:#a40000;fill-opacity:1;fill-rule:evenodd;stroke:none"
           xlink:href="#path22091"
           inkscape:original="M 649.75 891.0625 C 641.40779 893.35756 635.28126 900.99292 635.28125 910.0625 C 635.28127 920.94545 644.11705 929.78124 655 929.78125 C 665.88295 929.78122 674.71874 920.94545 674.71875 910.0625 C 674.71873 900.98968 668.56549 893.35456 660.21875 891.0625 L 660.21875 899.15625 C 664.28467 901.11041 667.125 905.25095 667.125 910.0625 C 667.12501 916.75034 661.68785 922.1875 655 922.1875 C 648.31215 922.18751 642.875 916.75035 642.875 910.0625 C 642.87498 905.25102 645.6842 901.11044 649.75 899.15625 L 649.75 891.0625 z "
           inkscape:radius="-0.66131908"
           sodipodi:type="inkscape:offset" />
        <path
           transform="matrix(0.935483,0,0,0.935483,3.100892,-64.47165)"
           d="m 651.78125,887.90625 0,22.625 6.4375,0 0,-22.625 -6.4375,0 z"
           inkscape:href="#path22093"
           id="path3754"
           style="fill:#a40000;fill-opacity:1;fill-rule:evenodd;stroke:none"
           xlink:href="#path22093"
           inkscape:original="M 651.1875 887.3125 L 651.1875 911.125 L 658.8125 911.125 L 658.8125 887.3125 L 651.1875 887.3125 z "
           inkscape:radius="-0.60243881"
           sodipodi:type="inkscape:offset" />
      </g>
      <g
         id="g3756"
         transform="matrix(0.5824089,0,0,0.5824089,-309.29626,-432.75718)"
         style="fill:#eeeeec;stroke:none">
        <path
           sodipodi:type="inkscape:offset"
           inkscape:radius="-0.66131908"
           inkscape:original="M 649.75 891.0625 C 641.40779 893.35756 635.28126 900.99292 635.28125 910.0625 C 635.28127 920.94545 644.11705 929.78124 655 929.78125 C 665.88295 929.78122 674.71874 920.94545 674.71875 910.0625 C 674.71873 900.98968 668.56549 893.35456 660.21875 891.0625 L 660.21875 899.15625 C 664.28467 901.11041 667.125 905.25095 667.125 910.0625 C 667.12501 916.75034 661.68785 922.1875 655 922.1875 C 648.31215 922.18751 642.875 916.75035 642.875 910.0625 C 642.87498 905.25102 645.6842 901.11044 649.75 899.15625 L 649.75 891.0625 z "
           xlink:href="#path22091"
           style="fill:#eeeeec;fill-opacity:1;fill-rule:evenodd;stroke:none"
           id="path3758"
           inkscape:href="#path22091"
           d="m 649.09375,892 c -7.61853,2.48999 -13.15624,9.60548 -13.15625,18.0625 2e-5,10.525 8.5375,19.06249 19.0625,19.0625 10.525,-3e-5 19.06249,-8.5375 19.0625,-19.0625 -2e-5,-8.45792 -5.56444,-15.57409 -13.1875,-18.0625 l 0,6.8125 c 4.06728,2.13572 6.90625,6.34059 6.90625,11.25 10e-6,7.04627 -5.73497,12.78125 -12.78125,12.78125 -7.04628,10e-6 -12.78125,-5.73497 -12.78125,-12.78125 -2e-5,-4.90659 2.80869,-9.1136 6.875,-11.25 l 0,-6.8125 z"
           transform="matrix(0.935483,0,0,0.935483,3.100892,-64.47165)" />
        <path
           sodipodi:type="inkscape:offset"
           inkscape:radius="-0.60243881"
           inkscape:original="M 651.1875 887.3125 L 651.1875 911.125 L 658.8125 911.125 L 658.8125 887.3125 L 651.1875 887.3125 z "
           xlink:href="#path22093"
           style="fill:#eeeeec;fill-opacity:1;fill-rule:evenodd;stroke:none"
           id="path3760"
           inkscape:href="#path22093"
           d="m 651.78125,887.90625 0,22.625 6.4375,0 0,-22.625 -6.4375,0 z"
           transform="matrix(0.935483,0,0,0.935483,3.100892,-64.47165)" />
      </g>
      <path
         style="fill:none;stroke:#000000;stroke-width:1px;stroke-linecap:butt;stroke-linejoin:miter;stroke-opacity:1"
         d="m 9.875897,59.98061 0,-60 80,60 0,-60 z"
         id="path3032"
         inkscape:connector-curvature="0" />
      <path
         style="fill:none;stroke:#000000;stroke-width:1px;stroke-linecap:butt;stroke-linejoin:miter;stroke-opacity:1"
         d="m 49.875897,29.98061 0,-30"
         id="path3034"
         inkscape:connector-curvature="0" />
      <path
         style="fill:none;stroke:#000000;stroke-width:1px;stroke-linecap:butt;stroke-linejoin:miter;stroke-opacity:1"
         d="m 39.875897,-0.01939 10,-10 0,10 10,-10"
         id="path3804"
         inkscape:connector-curvature="0" />
      <path
         sodipodi:type="arc"
         style="opacity:0.5;fill:#ffffff;fill-opacity:1;stroke:#000000;stroke-opacity:1"
         id="path3806"
         sodipodi:cx="135"
         sodipodi:cy="140"
         sodipodi:rx="15"
         sodipodi:ry="10"
         d="m 150,140 c 0,5.52285 -6.71573,10 -15,10 -8.28427,0 -15,-4.47715 -15,-10 0,-5.52285 6.71573,-10 15,-10 8.28427,0 15,4.47715 15,10 z"
         transform="matrix(1,0,0,1.2,-85.124103,-177.01939)" />
      <text
         xml:space="preserve"
         style="font-size:23.72370529000000200px;font-style:normal;font-weight:normal;line-height:125%;letter-spacing:0px;word-spacing:0px;fill:#ff0000;fill-opacity:1;stroke:none;font-family:Sans"
         x="-1.8953246"
         y="43.284264"
         id="text3010"
         sodipodi:linespacing="125%"
         transform="scale(0.59309262,1.6860773)"><tspan
           sodipodi:role="line"
           id="tspan3012"
           x="-1.8953246"
           y="43.284264">TRIGGER OFF</tspan></text>
    </g>
  </g>
</svg>
